This week, the finalists head to Miami for the South Beach Wine and Food Festival.

Paula Deen is having a summer beach party for friends and family at SOBE -- and the finalists are cooking up the meal!

Each finalist must create an adult dish for the party and a kids' version of the dish for this beachside bash.

The final eight will also have to perform a 30-second "entertaining tip" on camera, which will be watched by the judging table.

Format : MPEG-4
Format profile : Base Media
Codec ID : isom
File size : 500 MiB
Duration : 41mn 58s
Overall bit rate mode : Variable
Overall bit rate : 1 666 Kbps


Video
ID : 1
Format : AVC
Format/Info : Advanced Video Codec
Format profile : Baseline@L3.0
Format settings, CABAC : No
Format settings, ReFrames : 1 frame
Format settings, GOP : M=1, N=12
Codec ID : avc1
Codec ID/Info : Advanced Video Coding
Duration : 41mn 58s
Bit rate : 1 509 Kbps
Width : 640 pixels
Height : 360 pixels
Display aspect ratio : 16:9
Frame rate mode : Constant
Frame rate : 29.970 fps
Color space : YUV
Chroma subsampling : 4:2:0
Bit depth : 8 bits
Scan type : Progressive
Bits/(Pixel*Frame) : 0.219
Stream size : 453 MiB (91%)


Audio
ID : 2
Format : AAC
Format/Info : Advanced Audio Codec
Format profile : LC
Codec ID : 40
Duration : 41mn 58s
Bit rate mode : Variable
Bit rate : 152 Kbps
Channel(s) : 2 channels
Channel positions : Front: L R
Sampling rate : 44.1 KHz
Compression mode : Lossy
Stream size : 45.6 MiB (9%)